<svg viewBox="0 0 45 45" xmlns="http://www.w3.org/2000/svg"><circle cx="22.5" cy="22.5" r="22.5"/><path fill-rule="evenodd" clip-rule="evenodd" d="M22.5 15.086c-2.797 0-5.6.473-6.617 1.415-.844.781-1.125 2.162-1.22 3.037 0 0-.013.086-.013.123 0 .343.294.618.654.618.043 0 1.616-.12 2.565-.195.022-.003.045-.006.068-.012.353-.01.638-.281.638-.618l.003-1.217c0-.377.324-.68.723-.68H25.7c.399 0 .723.303.723.68l.003 1.217c0 .337.284.609.638.618.022.006.046.01.069.012.948.074 2.521.195 2.564.195.36 0 .654-.275.654-.618 0-.037-.013-.123-.013-.123-.095-.875-.376-2.255-1.22-3.037-1.017-.942-3.82-1.415-6.617-1.415zm0 8.032c-.723 0-1.308.553-1.308 1.235 0 .683.585 1.236 1.308 1.236.723 0 1.308-.553 1.308-1.236 0-.682-.585-1.235-1.308-1.235zm-.981-2.78v-.773c0-.426-.367-.772-.818-.772-.451 0-.818.346-.818.772v.772l-4.412 4.452a1.504 1.504 0 00-.494 1.106v1.239c0 .682.586 1.235 1.308 1.235h.328v.772c0 .427.366.773.817.773.451 0 .818-.346.818-.773v-.772h8.504v.772c0 .427.366.773.818.773.451 0 .817-.346.817-.773v-.772h.327c.723 0 1.309-.553 1.309-1.235v-1.24c0-.432-.19-.824-.494-1.105l-4.412-4.452v-.772c0-.426-.367-.772-.818-.772-.451 0-.818.346-.818.772v.772H21.52zm.98 1.544c1.447 0 2.618 1.106 2.618 2.471 0 1.366-1.171 2.472-2.617 2.472s-2.617-1.106-2.617-2.472c0-1.365 1.171-2.47 2.617-2.47z"/></svg>